mtllib DolSoccerball.mtl

v -1.901614 5.559144 -0.813710
v -0.552208 5.338320 1.565498
v -1.906023 5.551433 0.770594
v -0.543395 5.353743 -1.603107
v 0.810415 5.140628 -0.808200
v 0.806008 5.132915 0.776103
v 0.732564 6.981724 3.348432
v 2.127504 5.851919 1.272870
v 2.090783 6.776323 2.559037
v -0.588934 6.262724 2.851663
v -0.552208 5.338320 1.565498
v 0.806008 5.132915 0.776103
v 0.810415 5.140628 -0.808200
v 2.105047 6.801277 -2.567877
v 2.134635 5.864396 -1.290585
v -0.543395 5.353743 -1.603107
v -0.572987 6.290624 -2.880397
v 0.751235 7.014391 -3.362783
v 2.127504 5.851919 1.272870
v 2.875197 8.152806 2.567917
v 2.090783 6.776323 2.559037
v 2.948642 6.303997 -0.004413
v 3.733057 7.680481 0.004469
v 3.696337 8.604886 1.290636
v -3.644050 7.679089 -0.808236
v -2.779441 6.607550 1.565482
v -3.648457 7.671376 0.776066
v -2.770627 6.622973 -1.603126
v -1.901614 5.559144 -0.813710
v -1.906023 5.551433 0.770594
v 3.703469 8.617363 -1.272822
v 2.105047 6.801277 -2.567877
v 2.889460 8.177761 -2.558993
v 3.733057 7.680481 0.004469
v 2.948642 6.303997 -0.004413
v 2.134635 5.864396 -1.290585
v -2.020446 8.550579 3.348409
v 0.677556 8.485156 3.845188
v -0.698951 9.269580 3.845163
v -1.965437 7.047153 2.851653
v -0.588934 6.262724 2.851663
v 0.732564 6.981724 3.348432
v 0.751235 7.014391 -3.362783
v -0.677556 9.307014 -3.845188
v 0.698951 8.522590 -3.845163
v -0.572987 6.290624 -2.880397
v -1.949489 7.075053 -2.880407
v -2.001776 8.583247 -3.362802
v -3.703469 9.174807 1.272822
v -2.020446 8.550579 3.348409
v -2.889460 9.614408 2.558993
v -3.648457 7.671376 0.776066
v -2.779441 6.607550 1.565482
v -1.965437 7.047153 2.851653
v 2.875197 8.152806 2.567917
v 1.949489 10.717117 2.880407
v 2.001776 9.208922 3.362802
v 3.696337 8.604886 1.290636
v 3.644050 10.113081 0.808236
v 2.770627 11.169197 1.603126
v -1.949489 7.075053 -2.880407
v -2.875197 9.639363 -2.567917
v -2.001776 8.583247 -3.362802
v -2.770627 6.622973 -1.603126
v -3.644050 7.679089 -0.808236
v -3.696337 9.187284 -1.290636
v 2.779441 11.184619 -1.565482
v 2.020446 9.241590 -3.348409
v 1.965437 10.745017 -2.851653
v 3.648457 10.120793 -0.776066
v 3.703469 8.617363 -1.272822
v 2.889460 8.177761 -2.558993
v -0.698951 9.269580 3.845163
v 0.572987 11.501546 2.880397
v -0.751235 10.777779 3.362783
v 0.677556 8.485156 3.845188
v 2.001776 9.208922 3.362802
v 1.949489 10.717117 2.880407
v 1.901614 12.233027 0.813710
v 2.779441 11.184619 -1.565482
v 1.906023 12.240737 -0.770594
v 2.770627 11.169197 1.603126
v 3.644050 10.113081 0.808236
v 3.648457 10.120793 -0.776066
v 1.965437 10.745017 -2.851653
v -0.732564 10.810446 -3.348432
v 0.588934 11.529446 -2.851663
v 2.020446 9.241590 -3.348409
v 0.698951 8.522590 -3.845163
v -0.677556 9.307014 -3.845188
v -2.948642 11.488173 0.004413
v -2.105047 10.990892 2.567877
v -2.134635 11.927773 1.290585
v -3.733057 10.111689 -0.004469
v -3.703469 9.174807 1.272822
v -2.889460 9.614408 2.558993
v -2.875197 9.639363 -2.567917
v -2.127504 11.940251 -1.272870
v -2.090783 11.015846 -2.559037
v -3.696337 9.187284 -1.290636
v -3.733057 10.111689 -0.004469
v -2.948642 11.488173 0.004413
v -2.105047 10.990892 2.567877
v -0.810415 12.651542 0.808200
v -2.134635 11.927773 1.290585
v -0.751235 10.777779 3.362783
v 0.572987 11.501546 2.880397
v 0.543395 12.438427 1.603107
v 0.552208 12.453849 -1.565498
v -2.127504 11.940251 -1.272870
v -0.806008 12.659255 -0.776103
v 0.588934 11.529446 -2.851663
v -0.732564 10.810446 -3.348432
v -2.090783 11.015846 -2.559037
v -0.810415 12.651542 0.808200
v 0.552208 12.453849 -1.565498
v -0.806008 12.659255 -0.776103
v 0.543395 12.438427 1.603107
v 1.901614 12.233027 0.813710
v 1.906023 12.240737 -0.770594

vt 0.332183 0.993753
vt 1.000000 0.750000
vt 0.667817 0.993753
vt 0.000000 0.750000
vt 0.332183 0.510774
vt 0.667817 0.510774
vt 1.000000 0.750000
vt 0.332183 0.510774
vt 0.667817 0.510774
vt 0.667817 0.993753
vt 0.332183 0.993753
vt 0.000000 0.750000
vt 0.667817 0.993753
vt 0.667817 0.510774
vt 1.000000 0.750000
vt 0.332183 0.993753
vt 0.000000 0.750000
vt 0.332183 0.510774
vt 0.332183 0.993753
vt 1.000000 0.750000
vt 0.667817 0.993753
vt 0.000000 0.750000
vt 0.332183 0.510774
vt 0.667817 0.510774
vt 0.667817 0.993753
vt 0.667817 0.510774
vt 1.000000 0.750000
vt 0.332183 0.993753
vt 0.000000 0.750000
vt 0.332183 0.510774
vt 0.667817 0.510774
vt 0.000000 0.750000
vt 0.332183 0.510774
vt 1.000000 0.750000
vt 0.667817 0.993753
vt 0.332183 0.993753
vt 0.667817 0.993753
vt 0.667817 0.510774
vt 1.000000 0.750000
vt 0.332183 0.993753
vt 0.000000 0.750000
vt 0.332183 0.510774
vt 0.667817 0.993753
vt 0.667817 0.510774
vt 1.000000 0.750000
vt 0.332183 0.993753
vt 0.000000 0.750000
vt 0.332183 0.510774
vt 0.667817 0.993753
vt 0.667817 0.510774
vt 1.000000 0.750000
vt 0.332183 0.993753
vt 0.000000 0.750000
vt 0.332183 0.510774
vt 0.332183 0.993753
vt 1.000000 0.750000
vt 0.667817 0.993753
vt 0.000000 0.750000
vt 0.332183 0.510774
vt 0.667817 0.510774
vt 0.332183 0.993753
vt 1.000000 0.750000
vt 0.667817 0.993753
vt 0.000000 0.750000
vt 0.332183 0.510774
vt 0.667817 0.510774
vt 0.667817 0.510774
vt 0.000000 0.750000
vt 0.332183 0.510774
vt 1.000000 0.750000
vt 0.667817 0.993753
vt 0.332183 0.993753
vt 0.332183 0.993753
vt 1.000000 0.750000
vt 0.667817 0.993753
vt 0.000000 0.750000
vt 0.332183 0.510774
vt 0.667817 0.510774
vt 0.667817 0.510774
vt 0.000000 0.750000
vt 0.332183 0.510774
vt 1.000000 0.750000
vt 0.667817 0.993753
vt 0.332183 0.993753
vt 1.000000 0.750000
vt 0.332183 0.510774
vt 0.667817 0.510774
vt 0.667817 0.993753
vt 0.332183 0.993753
vt 0.000000 0.750000
vt 0.667817 0.993753
vt 0.667817 0.510774
vt 1.000000 0.750000
vt 0.332183 0.993753
vt 0.000000 0.750000
vt 0.332183 0.510774
vt 0.332183 0.993753
vt 1.000000 0.750000
vt 0.667817 0.993753
vt 0.000000 0.750000
vt 0.332183 0.510774
vt 0.667817 0.510774
vt 0.000000 0.750000
vt 0.667817 0.993753
vt 0.332183 0.993753
vt 0.332183 0.510774
vt 0.667817 0.510774
vt 1.000000 0.750000
vt 1.000000 0.750000
vt 0.332183 0.510774
vt 0.667817 0.510774
vt 0.667817 0.993753
vt 0.332183 0.993753
vt 0.000000 0.750000
vt 0.332183 0.510774
vt 0.332183 0.993753
vt 0.000000 0.750000
vt 0.667817 0.510774
vt 1.000000 0.750000
vt 0.667817 0.993753

vn -0.485577 -0.852090 -0.195340
vn -0.130344 -0.910024 0.393531
vn -0.486634 -0.853937 0.184332
vn -0.128128 -0.906147 -0.403090
vn 0.196307 -0.957219 -0.212594
vn 0.195148 -0.959248 0.204355
vn 0.176682 -0.494436 0.851068
vn 0.542932 -0.770024 0.335093
vn 0.534132 -0.548494 0.643317
vn -0.140008 -0.666742 0.732019
vn -0.130344 -0.910024 0.393531
vn 0.195148 -0.959248 0.204355
vn 0.196307 -0.957219 -0.212594
vn 0.537718 -0.542219 -0.645645
vn 0.544810 -0.766740 -0.339546
vn -0.128128 -0.906147 -0.403090
vn -0.135914 -0.659581 -0.739243
vn 0.181429 -0.486133 -0.854844
vn 0.542932 -0.770024 0.335093
vn 0.740571 -0.186237 0.645655
vn 0.534132 -0.548494 0.643317
vn 0.759036 -0.651048 -0.001057
vn 0.947018 -0.321180 0.001071
vn 0.937353 -0.077899 0.339559
vn -0.923593 -0.319022 -0.212604
vn -0.716497 -0.575993 0.393527
vn -0.924753 -0.321051 0.204346
vn -0.714282 -0.572116 -0.403095
vn -0.485577 -0.852090 -0.195340
vn -0.486634 -0.853937 0.184332
vn 0.939230 -0.074615 -0.335081
vn 0.537718 -0.542219 -0.645645
vn 0.744157 -0.179963 -0.643307
vn 0.947018 -0.321180 0.001071
vn 0.759036 -0.651048 -0.001057
vn 0.544810 -0.766740 -0.339546
vn -0.515453 -0.100010 0.851062
vn 0.162205 -0.098771 0.981801
vn -0.167668 0.089212 0.981799
vn -0.502271 -0.460300 0.732016
vn -0.140008 -0.666742 0.732019
vn 0.176682 -0.494436 0.851068
vn 0.181429 -0.486133 -0.854844
vn -0.162205 0.098771 -0.981801
vn 0.167668 -0.089212 -0.981799
vn -0.135914 -0.659581 -0.739243
vn -0.498177 -0.453139 -0.739246
vn -0.510707 -0.091707 -0.854850
vn -0.939230 0.074615 0.335081
vn -0.515453 -0.100010 0.851062
vn -0.744157 0.179963 0.643307
vn -0.924753 -0.321051 0.204346
vn -0.716497 -0.575993 0.393527
vn -0.502271 -0.460300 0.732016
vn 0.740571 -0.186237 0.645655
vn 0.498177 0.453139 0.739246
vn 0.510707 0.091706 0.854850
vn 0.937353 -0.077899 0.339559
vn 0.923593 0.319022 0.212604
vn 0.714282 0.572116 0.403095
vn -0.498177 -0.453139 -0.739246
vn -0.740571 0.186237 -0.645655
vn -0.510707 -0.091707 -0.854850
vn -0.714282 -0.572116 -0.403095
vn -0.923593 -0.319022 -0.212604
vn -0.937353 0.077899 -0.339559
vn 0.716497 0.575993 -0.393527
vn 0.515453 0.100010 -0.851062
vn 0.502271 0.460300 -0.732016
vn 0.924753 0.321051 -0.204346
vn 0.939230 -0.074615 -0.335081
vn 0.744157 -0.179963 -0.643307
vn -0.167668 0.089212 0.981799
vn 0.135914 0.659582 0.739242
vn -0.181429 0.486133 0.854844
vn 0.162205 -0.098771 0.981801
vn 0.510707 0.091706 0.854850
vn 0.498177 0.453139 0.739246
vn 0.485577 0.852090 0.195340
vn 0.716497 0.575993 -0.393527
vn 0.486634 0.853937 -0.184332
vn 0.714282 0.572116 0.403095
vn 0.923593 0.319022 0.212604
vn 0.924753 0.321051 -0.204346
vn 0.502271 0.460300 -0.732016
vn -0.176682 0.494436 -0.851068
vn 0.140008 0.666742 -0.732019
vn 0.515453 0.100010 -0.851062
vn 0.167668 -0.089212 -0.981799
vn -0.162205 0.098771 -0.981801
vn -0.759036 0.651048 0.001057
vn -0.537718 0.542219 0.645645
vn -0.544810 0.766740 0.339546
vn -0.947018 0.321179 -0.001071
vn -0.939230 0.074615 0.335081
vn -0.744157 0.179963 0.643307
vn -0.740571 0.186237 -0.645655
vn -0.542932 0.770024 -0.335093
vn -0.534132 0.548494 -0.643317
vn -0.937353 0.077899 -0.339559
vn -0.947018 0.321179 -0.001071
vn -0.759036 0.651048 0.001057
vn -0.537718 0.542219 0.645645
vn -0.196307 0.957219 0.212594
vn -0.544810 0.766740 0.339546
vn -0.181429 0.486133 0.854844
vn 0.135914 0.659582 0.739242
vn 0.128128 0.906147 0.403090
vn 0.130344 0.910024 -0.393531
vn -0.542932 0.770024 -0.335093
vn -0.195148 0.959248 -0.204355
vn 0.140008 0.666742 -0.732019
vn -0.176682 0.494436 -0.851068
vn -0.534132 0.548494 -0.643317
vn -0.196307 0.957219 0.212594
vn 0.130344 0.910024 -0.393531
vn -0.195148 0.959248 -0.204355
vn 0.128128 0.906147 0.403090
vn 0.485577 0.852090 0.195340
vn 0.486634 0.853937 -0.184332

g polygon0
s 1
usemtl mat2
f 1/1/1 2/2/2 3/3/3
f 1/1/1 4/4/4 2/2/2
f 5/5/5 2/2/2 4/4/4
f 5/5/5 6/6/6 2/2/2
f 7/7/7 8/8/8 9/9/9
f 7/7/7 10/10/10 8/8/8
f 11/11/11 8/8/8 10/10/10
f 11/11/11 12/12/12 8/8/8
f 13/13/13 14/14/14 15/15/15
f 13/13/13 16/16/16 14/14/14
f 17/17/17 14/14/14 16/16/16
f 17/17/17 18/18/18 14/14/14
f 19/19/19 20/20/20 21/21/21
f 19/19/19 22/22/22 20/20/20
f 23/23/23 20/20/20 22/22/22
f 23/23/23 24/24/24 20/20/20
f 25/25/25 26/26/26 27/27/27
f 25/25/25 28/28/28 26/26/26
f 29/29/29 26/26/26 28/28/28
f 29/29/29 30/30/30 26/26/26
f 31/31/31 32/32/32 33/33/33
f 31/31/31 34/34/34 32/32/32
f 35/35/35 32/32/32 34/34/34
f 35/35/35 36/36/36 32/32/32
f 37/37/37 38/38/38 39/39/39
f 37/37/37 40/40/40 38/38/38
f 41/41/41 38/38/38 40/40/40
f 41/41/41 42/42/42 38/38/38
f 43/43/43 44/44/44 45/45/45
f 43/43/43 46/46/46 44/44/44
f 47/47/47 44/44/44 46/46/46
f 47/47/47 48/48/48 44/44/44
f 49/49/49 50/50/50 51/51/51
f 49/49/49 52/52/52 50/50/50
f 53/53/53 50/50/50 52/52/52
f 53/53/53 54/54/54 50/50/50
f 55/55/55 56/56/56 57/57/57
f 55/55/55 58/58/58 56/56/56
f 59/59/59 56/56/56 58/58/58
f 59/59/59 60/60/60 56/56/56
f 61/61/61 62/62/62 63/63/63
f 61/61/61 64/64/64 62/62/62
f 65/65/65 62/62/62 64/64/64
f 65/65/65 66/66/66 62/62/62
f 67/67/67 68/68/68 69/69/69
f 67/67/67 70/70/70 68/68/68
f 71/71/71 68/68/68 70/70/70
f 71/71/71 72/72/72 68/68/68
f 73/73/73 74/74/74 75/75/75
f 73/73/73 76/76/76 74/74/74
f 77/77/77 74/74/74 76/76/76
f 77/77/77 78/78/78 74/74/74
f 79/79/79 80/80/80 81/81/81
f 79/79/79 82/82/82 80/80/80
f 83/83/83 80/80/80 82/82/82
f 83/83/83 84/84/84 80/80/80
f 85/85/85 86/86/86 87/87/87
f 85/85/85 88/88/88 86/86/86
f 89/89/89 86/86/86 88/88/88
f 89/89/89 90/90/90 86/86/86
f 91/91/91 92/92/92 93/93/93
f 91/91/91 94/94/94 92/92/92
f 95/95/95 92/92/92 94/94/94
f 95/95/95 96/96/96 92/92/92
f 97/97/97 98/98/98 99/99/99
f 97/97/97 100/100/100 98/98/98
f 101/101/101 98/98/98 100/100/100
f 101/101/101 102/102/102 98/98/98
f 103/103/103 104/104/104 105/105/105
f 103/103/103 106/106/106 104/104/104
f 107/107/107 104/104/104 106/106/106
f 107/107/107 108/108/108 104/104/104
f 109/109/109 110/110/110 111/111/111
f 109/109/109 112/112/112 110/110/110
f 113/113/113 110/110/110 112/112/112
f 113/113/113 114/114/114 110/110/110
f 115/115/115 116/116/116 117/117/117
f 115/115/115 118/118/118 116/116/116
f 119/119/119 116/116/116 118/118/118
f 119/119/119 120/120/120 116/116/116

v 2.948642 6.303997 -0.004413
v 0.810415 5.140628 -0.808200
v 2.134635 5.864396 -1.290585
v 2.127504 5.851919 1.272870
v -2.779441 6.607550 1.565482
v -0.588934 6.262724 2.851663
v -1.965437 7.047153 2.851653
v -1.906023 5.551433 0.770594
v -0.543395 5.353743 -1.603107
v -1.949489 7.075053 -2.880407
v -0.572987 6.290624 -2.880397
v -1.901614 5.559144 -0.813710
v 0.732564 6.981724 3.348432
v 2.001776 9.208922 3.362802
v 0.677556 8.485156 3.845188
v 2.090783 6.776323 2.559037
v 3.644050 10.113081 0.808236
v 3.703469 8.617363 -1.272822
v 3.648457 10.120793 -0.776066
v 3.696337 8.604886 1.290636
v 2.889460 8.177761 -2.558993
v 0.698951 8.522590 -3.845163
v 2.020446 9.241590 -3.348409
v 2.105047 6.801277 -2.567877
v -3.644050 7.679089 -0.808236
v -3.733057 10.111689 -0.004469
v -3.696337 9.187284 -1.290636
v -3.648457 7.671376 0.776066
v -2.020446 8.550579 3.348409
v -2.105047 10.990892 2.567877
v -2.889460 9.614408 2.558993
v -0.698951 9.269580 3.845163
v -0.732564 10.810446 -3.348432
v -2.875197 9.639363 -2.567917
v -2.090783 11.015846 -2.559037
v -0.677556 9.307014 -3.845188
v 0.572987 11.501546 2.880397
v 1.901614 12.233027 0.813710
v 0.543395 12.438427 1.603107
v 1.949489 10.717117 2.880407
v 2.779441 11.184619 -1.565482
v 0.552208 12.453849 -1.565498
v 1.906023 12.240737 -0.770594
v 1.965437 10.745017 -2.851653
v -2.948642 11.488173 0.004413
v -0.806008 12.659255 -0.776103
v -2.127504 11.940251 -1.272870
v -2.134635 11.927773 1.290585
v 0.806008 5.132915 0.776103
v -0.552208 5.338320 1.565498
v -2.770627 6.622973 -1.603126
v 2.875197 8.152806 2.567917
v 3.733057 7.680481 0.004469
v 0.751235 7.014391 -3.362783
v -3.703469 9.174807 1.272822
v -0.751235 10.777779 3.362783
v -2.001776 8.583247 -3.362802
v 2.770627 11.169197 1.603126
v 0.588934 11.529446 -2.851663
v -0.810415 12.651542 0.808200

vt 0.000000 1.000000
vt 0.000000 1.000000
vt 0.000000 1.000000
vt 0.000000 1.000000
vt 0.000000 1.000000
vt 0.000000 1.000000
vt 0.000000 1.000000
vt 0.000000 1.000000
vt 0.000000 1.000000
vt 0.000000 1.000000
vt 0.000000 1.000000
vt 0.000000 1.000000
vt 0.000000 1.000000
vt 0.000000 1.000000
vt 0.000000 1.000000
vt 0.000000 1.000000
vt 0.000000 1.000000
vt 0.000000 1.000000
vt 0.000000 1.000000
vt 0.000000 1.000000
vt 0.000000 1.000000
vt 0.000000 1.000000
vt 0.000000 1.000000
vt 0.000000 1.000000
vt 0.000000 1.000000
vt 0.000000 1.000000
vt 0.000000 1.000000
vt 0.000000 1.000000
vt 0.000000 1.000000
vt 0.000000 1.000000
vt 0.000000 1.000000
vt 0.000000 1.000000
vt 0.000000 1.000000
vt 0.000000 1.000000
vt 0.000000 1.000000
vt 0.000000 1.000000
vt 0.000000 1.000000
vt 0.000000 1.000000
vt 0.000000 1.000000
vt 0.000000 1.000000
vt 0.000000 1.000000
vt 0.000000 1.000000
vt 0.000000 1.000000
vt 0.000000 1.000000
vt 0.000000 1.000000
vt 0.000000 1.000000
vt 0.000000 1.000000
vt 0.000000 1.000000
vt 0.000000 1.000000
vt 0.000000 1.000000
vt 0.000000 1.000000
vt 0.000000 1.000000
vt 0.000000 1.000000
vt 0.000000 1.000000
vt 0.000000 1.000000
vt 0.000000 1.000000
vt 0.000000 1.000000
vt 0.000000 1.000000
vt 0.000000 1.000000
vt 0.000000 1.000000

vn 0.759036 -0.651048 -0.001057
vn 0.196307 -0.957219 -0.212594
vn 0.544810 -0.766740 -0.339546
vn 0.542932 -0.770024 0.335093
vn -0.716497 -0.575993 0.393527
vn -0.140008 -0.666742 0.732019
vn -0.502271 -0.460300 0.732016
vn -0.486634 -0.853937 0.184332
vn -0.128128 -0.906147 -0.403090
vn -0.498177 -0.453139 -0.739246
vn -0.135914 -0.659581 -0.739243
vn -0.485577 -0.852090 -0.195340
vn 0.176682 -0.494436 0.851068
vn 0.510707 0.091706 0.854850
vn 0.162205 -0.098771 0.981801
vn 0.534132 -0.548494 0.643317
vn 0.923593 0.319022 0.212604
vn 0.939230 -0.074615 -0.335081
vn 0.924753 0.321051 -0.204346
vn 0.937353 -0.077899 0.339559
vn 0.744157 -0.179963 -0.643307
vn 0.167668 -0.089212 -0.981799
vn 0.515453 0.100010 -0.851062
vn 0.537718 -0.542219 -0.645645
vn -0.923593 -0.319022 -0.212604
vn -0.947018 0.321179 -0.001071
vn -0.937353 0.077899 -0.339559
vn -0.924753 -0.321051 0.204346
vn -0.515453 -0.100010 0.851062
vn -0.537718 0.542219 0.645645
vn -0.744157 0.179963 0.643307
vn -0.167668 0.089212 0.981799
vn -0.176682 0.494436 -0.851068
vn -0.740571 0.186237 -0.645655
vn -0.534132 0.548494 -0.643317
vn -0.162205 0.098771 -0.981801
vn 0.135914 0.659582 0.739242
vn 0.485577 0.852090 0.195340
vn 0.128128 0.906147 0.403090
vn 0.498177 0.453139 0.739246
vn 0.716497 0.575993 -0.393527
vn 0.130344 0.910024 -0.393531
vn 0.486634 0.853937 -0.184332
vn 0.502271 0.460300 -0.732016
vn -0.759036 0.651048 0.001057
vn -0.195148 0.959248 -0.204355
vn -0.542932 0.770024 -0.335093
vn -0.544810 0.766740 0.339546
vn 0.195148 -0.959248 0.204355
vn -0.130344 -0.910024 0.393531
vn -0.714282 -0.572116 -0.403095
vn 0.740571 -0.186237 0.645655
vn 0.947018 -0.321180 0.001071
vn 0.181429 -0.486133 -0.854844
vn -0.939230 0.074615 0.335081
vn -0.181429 0.486133 0.854844
vn -0.510707 -0.091707 -0.854850
vn 0.714282 0.572116 0.403095
vn 0.140008 0.666742 -0.732019
vn -0.196307 0.957219 0.212594

g polygon1
s 1
usemtl mat1
f 121/121/121 122/122/122 123/123/123
f 121/121/121 124/124/124 122/122/122
f 125/125/125 126/126/126 127/127/127
f 125/125/125 128/128/128 126/126/126
f 129/129/129 130/130/130 131/131/131
f 129/129/129 132/132/132 130/130/130
f 133/133/133 134/134/134 135/135/135
f 133/133/133 136/136/136 134/134/134
f 137/137/137 138/138/138 139/139/139
f 137/137/137 140/140/140 138/138/138
f 141/141/141 142/142/142 143/143/143
f 141/141/141 144/144/144 142/142/142
f 145/145/145 146/146/146 147/147/147
f 145/145/145 148/148/148 146/146/146
f 149/149/149 150/150/150 151/151/151
f 149/149/149 152/152/152 150/150/150
f 153/153/153 154/154/154 155/155/155
f 153/153/153 156/156/156 154/154/154
f 157/157/157 158/158/158 159/159/159
f 157/157/157 160/160/160 158/158/158
f 161/161/161 162/162/162 163/163/163
f 161/161/161 164/164/164 162/162/162
f 165/165/165 166/166/166 167/167/167
f 165/165/165 168/168/168 166/166/166
f 124/124/124 169/169/169 122/122/122
f 128/128/128 170/170/170 126/126/126
f 132/132/132 171/171/171 130/130/130
f 136/136/136 172/172/172 134/134/134
f 140/140/140 173/173/173 138/138/138
f 144/144/144 174/174/174 142/142/142
f 148/148/148 175/175/175 146/146/146
f 152/152/152 176/176/176 150/150/150
f 156/156/156 177/177/177 154/154/154
f 160/160/160 178/178/178 158/158/158
f 164/164/164 179/179/179 162/162/162
f 168/168/168 180/180/180 166/166/166

